<!--?xml version="1.0" standalone="no"?-->
              <svg id="sw-js-blob-svg" viewBox="0 0 100 100" xmlns="http://www.w3.org/2000/svg" version="1.1">
                    <defs> 
                        <linearGradient id="sw-gradient" x1="0" x2="1" y1="1" y2="0">
                            <stop id="stop1" stop-color="rgba(248, 117, 55, 1)" offset="0%"></stop>
                            <stop id="stop2" stop-color="rgba(251, 168, 31, 1)" offset="100%"></stop>
                        </linearGradient>
                    </defs>
                <path fill="url(#sw-gradient)" d="M24.9,-29.2C32.7,-23.2,39.7,-15.7,42.5,-6.5C45.3,2.7,43.9,13.6,38.8,22.4C33.7,31.1,24.9,37.7,15.4,40.3C5.9,42.9,-4.4,41.5,-12.8,37.4C-21.2,33.4,-27.7,26.6,-31.5,18.8C-35.4,11,-36.5,2.2,-34.3,-5.4C-32.2,-12.9,-26.7,-19.1,-20.4,-25.4C-14.2,-31.7,-7.1,-38,0.7,-38.9C8.6,-39.8,17.2,-35.2,24.9,-29.2Z" width="100%" height="100%" transform="translate(50 50)" stroke-width="0" style="transition: all 0.3s ease 0s;"></path>
              </svg>